<svg width="444" height="97" viewBox="0 0 444 97" fill="none" xmlns="http://www.w3.org/2000/svg">
<g filter="url(#filter0_d_212_30)">
<path d="M22.5333 5.33331C13.2 10.2666 5.59998 22.2666 4.39998 34.1333L3.59998 41.3333H10.2666H16.9333L17.6 32.2666C18 27.3333 19.4666 20.5333 20.9333 17.2C27.6 2.26664 46.6666 4.53331 52 20.6666L53.6 25.4666L58.1333 16.6666C60.6666 11.8666 62.6666 7.73331 62.6666 7.33331C62.6666 6.93331 60.9333 6.66664 58.8 6.66664C56.6666 6.66664 52.4 5.73331 49.3333 4.66664C41.3333 1.86664 28.5333 2.13331 22.5333 5.33331Z" fill="white"/>
<path d="M69.0666 9.19996L73.3333 12.8V27.7333V42.6666H78.6666H84V27.4666C84 12.8 84.1333 12.2666 87.3333 10.1333C93.2 6.26662 91.2 5.33329 77.7333 5.33329L64.6666 5.46662L69.0666 9.19996Z" fill="white"/>
<path d="M111.067 9.46662L116 13.6V28.1333C116 41.7333 116.133 42.6666 118.667 42.6666C121.2 42.6666 121.333 41.7333 121.333 28.1333V13.4666L126.267 9.46662L131.333 5.33329H118.667L106 5.46662L111.067 9.46662Z" fill="white"/>
<path d="M132.133 6.26662C132.133 6.93329 133.867 10.9333 136 15.3333C139.467 23.0666 139.733 23.2 140.667 19.6C142.133 14.1333 147.333 10.6666 154.133 10.6666H160V26.6666V42.6666H166H172V26.6666V10.6666H177.2C184.667 10.6666 186.4 11.6 189.6 17.8666C191.467 21.4666 192.667 22.6666 193.067 21.3333C193.333 20.2666 195.067 16.4 196.8 12.9333C198.533 9.33329 200 6.13329 200 5.86662C200 5.59996 184.667 5.33329 166 5.33329C147.333 5.33329 132 5.73329 132.133 6.26662Z" fill="white"/>
<path d="M199.733 46.8C198.133 47.7333 197.333 49.7333 197.333 53.3333C197.333 58.1333 196.8 58.8 192.8 60.5333C190.4 61.6 187.867 63.0667 187.333 64C185.467 67.0667 186.133 74.5333 188.533 77.2C191.6 80.6667 199.333 82.1333 204.133 80.4C207.067 79.2 209.2 79.7333 217.333 83.6C227.6 88.5333 231.6 88.6667 223.467 83.8667C220.8 82.4 218.667 80.8 218.667 80.4C218.667 80.1333 219.467 80.2667 220.4 80.8C221.333 81.3333 221.6 81.2 220.933 80.5333C220.267 79.8667 219.2 79.3333 218.667 79.3333C218 79.3333 216.533 78.1333 215.333 76.6667C214.133 75.2 213.6 74.9333 214.133 76C215.067 77.7333 214.933 77.7333 212.933 76.1333C210.533 74.2667 210.933 72.6667 213.6 72.6667C214.4 72.6667 215.333 71.8667 215.733 70.8C216.133 69.7333 215.733 69.3333 214.8 69.8667C212.133 71.6 213.333 69.2 217.067 65.7333C219.067 63.7333 219.733 62.6667 218.667 63.2C217.6 63.7333 218.133 62.9333 220 61.3333C221.867 59.7333 222.4 58.9333 221.333 59.4667C219.733 60.2667 219.733 60 221.467 57.8667C225.6 52.9333 226 51.6 222.667 53.6C221.067 54.5333 217.2 58.8 214 63.0667L208.133 70.8L205.333 65.4667C202.133 58.9333 202.133 59.0667 205.333 58.2667C208.4 57.4667 210.267 51.2 208.4 48.1333C206.8 45.4667 202.8 44.9333 199.733 46.8ZM206.4 51.6C206.667 53.4667 205.867 55.0667 204.133 56C201.733 57.2 201.333 56.9333 200.533 54.1333C200.133 52.2667 200.133 50.1333 200.667 49.3333C202.133 46.9333 206 48.4 206.4 51.6ZM201.867 68.8C205.067 74.9333 205.467 76.4 203.867 77.4667C198.533 80.8 192 77.2 192 70.9333C192 67.3333 195.2 61.3333 197.067 61.3333C197.6 61.3333 199.733 64.6667 201.867 68.8Z" fill="white"/>
<path d="M4.39998 57.7333C5.59998 69.6 12.5333 80.8 21.4666 85.4666C37.8666 93.7333 55.8666 87.4666 60 71.8666C61.7333 65.3333 61.3333 62 58.6666 62C57.4666 62 56.4 64.1333 55.7333 68C54.5333 74.8 51.3333 79.8666 46.5333 82.2666C42.1333 84.5333 34 84.4 29.3333 82C24.1333 79.3333 18.8 68.8 17.6 58.9333L16.6666 51.3333L10.1333 50.9333L3.59998 50.5333L4.39998 57.7333Z" fill="white"/>
<path d="M73.6 65.2C74 76 74.5333 79.0667 76.6667 81.4667C86.2667 92.1333 109.733 92 117.733 81.2C121.2 76.4 121.867 52.9333 118.533 52.2667C116.8 52 116.267 54.2667 115.067 65.3333C113.467 81.3333 112.4 82.8 102.133 83.7333C87.4667 84.9333 84 80.6667 84 61.6V52H78.5333H73.0667L73.6 65.2Z" fill="white"/>
<path d="M160 66.9333C160 81.6 160 82 156.4 84.9333L152.667 87.8667L165.2 88H177.733L174.933 84.9333C172.4 82.2667 172 80.1333 171.733 67.3333L171.333 52.6667L165.733 52.2667L160 51.8667V66.9333Z" fill="white"/>
<path d="M245.067 54.1333C238.533 57.6 234.533 69.3333 239.867 69.3333C241.6 69.3333 242.667 68.1333 243.2 64.9333C243.6 62.5333 244.933 59.2 246.133 57.6C248.933 53.6 254.667 54.1333 256.8 58.4L258.267 61.4666L260.4 58.1333C262.533 54.9333 262.533 54.9333 256.667 53.4666C249.467 51.6 249.467 51.6 245.067 54.1333Z" fill="white"/>
<path d="M265.067 54.9333C266 55.8666 266.667 59.4666 266.667 62.9333C266.667 68.4 267.067 69.3333 269.333 69.3333C271.6 69.3333 272 68.4 272 63.4666C272 60.1333 272.667 57.0666 273.333 56.6666C276.267 54.8 274.4 53.3333 269.067 53.3333C264.667 53.3333 263.867 53.7333 265.067 54.9333Z" fill="white"/>
<path d="M284 54.5333C284 55.2 284.933 56.5333 286.133 57.4666C287.733 58.6666 288.133 60.6666 287.6 64.2666C287.2 67.0666 287.467 69.3333 288.133 69.3333C288.8 69.3333 289.333 66.8 289.333 63.7333C289.333 60.5333 290.267 57.2 291.6 55.7333C293.6 53.4666 293.467 53.3333 288.933 53.3333C286.133 53.3333 284 53.8666 284 54.5333Z" fill="white"/>
<path d="M296 54.5333C296 55.3333 296.667 56.2666 297.333 56.6666C298.133 57.0666 298.667 60.5333 298.667 64.1333C298.667 69.8666 299.067 70.8 301.067 70.4C302.667 70.1333 303.467 68.4 303.733 64C304 60.6666 304.667 57.4666 305.467 56.6666C307.867 54.2666 306.667 53.3333 301.333 53.3333C298.4 53.3333 296 53.8666 296 54.5333Z" fill="white"/>
<path d="M314.667 53.8666C314.667 54.2666 315.2 56 316 58L317.333 61.3333L320 58.6666C324.533 54.1333 327.2 55.7333 328 63.0666C328.4 66.5333 329.067 69.3333 329.733 69.3333C330.267 69.3333 331.333 69.3333 332 69.3333C332.8 69.3333 333.333 66.2666 333.333 62.6666C333.333 56.9333 333.733 56 336 56C337.467 56 339.333 57.2 340.267 58.6666C341.2 60.1333 342.4 61.3333 342.8 61.3333C343.467 61.3333 346.667 55.3333 346.667 54C346.667 53.6 339.467 53.3333 330.667 53.3333C321.867 53.3333 314.667 53.6 314.667 53.8666Z" fill="white"/>
<path d="M349.333 55.8666C350 57.3333 350.667 60.9333 350.667 63.8666C350.667 68.4 351.067 69.3333 353.333 69.3333C355.6 69.3333 356 68.4 356 63.4666C356 60.1333 356.667 57.0666 357.333 56.6666C360.267 54.8 358.4 53.3333 353.333 53.3333C348.4 53.3333 348 53.6 349.333 55.8666Z" fill="white"/>
<path d="M368 54.5333C368 55.3333 368.667 56.2666 369.333 56.6666C370.133 57.0666 370.667 60.1333 370.667 63.4666C370.667 66.6666 371.333 69.3333 372 69.3333C372.8 69.3333 373.333 66.8 373.333 63.7333C373.333 60.5333 374.267 57.2 375.6 55.7333C377.6 53.4666 377.467 53.3333 372.933 53.3333C370.133 53.3333 368 53.8666 368 54.5333Z" fill="white"/>
<path d="M383.867 54.8C380.533 56 380.267 56.6666 380.933 61.7333C381.867 69.7333 382.267 70.5333 384.933 70.1333C386.8 69.8666 387.467 68.2666 387.733 62.9333C388.133 56.1333 388.133 56 392.533 56C394.8 56 397.467 56.6666 398.4 57.6C400.4 59.6 400.533 65.6 398.533 67.6C397.467 68.6666 397.6 69.3333 398.667 70C399.6 70.5333 401.733 69.6 403.6 67.6C412.267 58.9333 397.867 49.6 383.867 54.8Z" fill="white"/>
<path d="M410.667 54.5333C410.667 55.3333 411.333 56.2666 412 56.6666C412.8 57.0666 413.333 60.4 413.333 64.1333V70.6666H421.333C428.667 70.6666 429.333 70.4 429.333 67.7333C429.333 65.4666 428.933 65.2 427.733 66.4C426.8 67.3333 424.4 68 422.4 68C418.8 68 418.667 67.7333 418.667 62C418.667 56 418.667 56 423.333 56C426.267 56 429.067 57.0666 430.8 58.8C432.267 60.2666 433.733 61.3333 433.867 61.0666C434.8 60.1333 437.333 54.8 437.333 54.1333C437.333 53.7333 431.333 53.3333 424 53.3333C416.533 53.3333 410.667 53.8666 410.667 54.5333Z" fill="white"/>
<path d="M237.867 77.5999C239.067 83.4666 243.733 87.8666 249.6 88.7999C253.6 89.4666 255.067 89.0666 257.867 86.2666C259.733 84.2666 261.333 81.4666 261.333 79.7333C261.2 77.0666 260.8 77.3333 258.933 81.3333C257.2 84.7999 255.6 86.1333 252.933 86.3999C248.133 86.9333 245.733 84.9333 243.733 78.5333C242.667 74.7999 241.467 73.3333 239.6 73.3333C237.333 73.3333 237.067 73.9999 237.867 77.5999Z" fill="white"/>
<path d="M266.667 77.8666C266.667 84.5333 270.267 88.1333 277.6 88.9333C285.6 89.8666 289.333 86.5333 289.333 78.6666C289.333 75.7333 288.8 73.3333 288 73.3333C287.333 73.3333 286.667 75.7333 286.667 78.6666C286.667 82.5333 286 84.2666 284.133 85.3333C277.6 88.7999 272 85.3333 272 77.8666C272 74.2666 271.467 73.3333 269.333 73.3333C267.2 73.3333 266.667 74.2666 266.667 77.8666Z" fill="white"/>
<path d="M298.667 79.7333C298.667 83.2 298 86.8 297.067 87.7333C295.867 88.9333 298.533 89.3333 309.067 89.3333H322.667L320.4 84.5333C319.067 82 317.867 80.5333 317.6 81.6C316.667 84.6666 312.933 86.6666 308.4 86.6666C304 86.6666 304 86.6666 304 80C304 74.2666 303.6 73.3333 301.333 73.3333C299.067 73.3333 298.667 74.2666 298.667 79.7333Z" fill="white"/>
<path d="M328 78.8C328 82.1333 327.067 85.4666 325.733 86.9333C323.733 89.2 323.867 89.3333 330 89.3333C334.933 89.3333 336 88.9333 334.933 87.6C334.133 86.6666 333.333 83.2 333.067 80C332.8 75.6 332 73.8666 330.4 73.6C328.4 73.2 328 74.1333 328 78.8Z" fill="white"/>
<path d="M350.667 77.8666C350.667 84.5333 354.267 88.1333 361.6 88.9333C369.6 89.8666 373.333 86.5333 373.333 78.6666C373.333 75.7333 372.8 73.3333 372 73.3333C371.333 73.3333 370.667 75.1999 370.667 77.4666C370.667 83.5999 368.533 86.6666 364 86.6666C358.933 86.6666 356 83.4666 356 77.8666C356 74.2666 355.467 73.3333 353.333 73.3333C351.2 73.3333 350.667 74.2666 350.667 77.8666Z" fill="white"/>
<path d="M382.267 74.2666C381.733 74.6666 381.333 77.6 381.333 80.6666C381.333 83.6 380.667 86.8 379.733 87.7333C378.533 88.9333 379.333 89.3333 383.6 89.3333H389.067L388.4 82.9333C388 79.4666 387.6 75.8666 387.333 74.9333C386.667 73.2 383.733 72.8 382.267 74.2666Z" fill="white"/>
<path d="M395.333 75.6C396.4 78.1333 397.867 83.6 399.2 89.7333C400 93.3333 400.133 93.3333 404 91.3333L408 89.2L404.133 84.2666C402 81.6 399.867 78 399.333 76.2666C398.933 74.6666 397.6 73.3333 396.4 73.3333C395.067 73.3333 394.667 74 395.333 75.6Z" fill="white"/>
<path d="M413.333 78.9333C413.333 82.1333 412.4 85.4666 411.067 86.9333C409.067 89.2 409.467 89.3333 424.533 89.3333H440.133L437.067 85.3333L434.133 81.3333L431.333 84C429.6 85.7333 426.667 86.6666 423.6 86.6666C418.8 86.6666 418.667 86.5333 418.667 81.3333C418.667 76.4 418.933 76 422.4 76C424.4 76 426.8 76.6666 427.733 77.6C428.933 78.8 429.333 78.5333 429.333 76.2666C429.333 73.6 428.667 73.3333 421.333 73.3333H413.333V78.9333Z" fill="white"/>
</g>
<defs>
<filter id="filter0_d_212_30" x="0.599976" y="0.736389" width="442.533" height="95.9404" filterUnits="userSpaceOnUse" color-interpolation-filters="sRGB">
<feFlood flood-opacity="0" result="BackgroundImageFix"/>
<feColorMatrix in="SourceAlpha" type="matrix" values="0 0 0 0 0 0 0 0 0 0 0 0 0 0 0 0 0 0 127 0" result="hardAlpha"/>
<feOffset dy="1"/>
<feGaussianBlur stdDeviation="1.5"/>
<feComposite in2="hardAlpha" operator="out"/>
<feColorMatrix type="matrix" values="0 0 0 0 0 0 0 0 0 0 0 0 0 0 0 0 0 0 0.25 0"/>
<feBlend mode="normal" in2="BackgroundImageFix" result="effect1_dropShadow_212_30"/>
<feBlend mode="normal" in="SourceGraphic" in2="effect1_dropShadow_212_30" result="shape"/>
</filter>
</defs>
</svg>
